HIERARCHY
ROOT Hips
{
	OFFSET	0.00	0.00	0.00
	CHANNELS 6 Xposition Yposition Zposition Zrotation Xrotation Yrotation
	JOINT LeftUpLeg
	{
		OFFSET	 0.126116	-0.065224	 0.014019
		CHANNELS 3 Zrotation Xrotation Yrotation
		JOINT LeftLeg
		{
			OFFSET	 0.000000	 0.569914	 0.000000
			CHANNELS 3 Zrotation Xrotation Yrotation
			JOINT LeftFoot
			{
				OFFSET	 0.000000	 0.544423	 0.000000
				CHANNELS 3 Zrotation Xrotation Yrotation
				JOINT LeftToeBase
				{
					OFFSET	 0.000000	 0.207117	 0.000000
					CHANNELS 3 Zrotation Xrotation Yrotation
					End Site
					{
						OFFSET	 0.000000	 0.207117	 0.000000
					}
				}
			}
		}
	}
	JOINT RightUpLeg
	{
		OFFSET	-0.124023	-0.065224	 0.008373
		CHANNELS 3 Zrotation Xrotation Yrotation
		JOINT RightLeg
		{
			OFFSET	 0.000000	 0.570047	 0.000000
			CHANNELS 3 Zrotation Xrotation Yrotation
			JOINT RightFoot
			{
				OFFSET	 0.000000	 0.544354	 0.000000
				CHANNELS 3 Zrotation Xrotation Yrotation
				JOINT RightToeBase
				{
					OFFSET	 0.000000	 0.207540	 0.000000
					CHANNELS 3 Zrotation Xrotation Yrotation
					End Site
					{
						OFFSET	 0.000000	 0.207540	 0.000000
					}
				}
			}
		}
	}
	JOINT Spine
	{
		OFFSET	 0.000184	 0.117403	 0.007763
		CHANNELS 3 Zrotation Xrotation Yrotation
		JOINT Spine1
		{
			OFFSET	 0.000000	 0.137269	 0.000000
			CHANNELS 3 Zrotation Xrotation Yrotation
			JOINT Spine2
			{
				OFFSET	 0.000000	 0.156879	 0.000000
				CHANNELS 3 Zrotation Xrotation Yrotation
				JOINT LeftShoulder
				{
					OFFSET	 0.080501	 0.160143	 0.002496
					CHANNELS 3 Zrotation Xrotation Yrotation
					JOINT LeftArm
					{
						OFFSET	 0.000000	 0.164363	 0.000000
						CHANNELS 3 Zrotation Xrotation Yrotation
						JOINT LeftForeArm
						{
							OFFSET	 0.000000	 0.364576	 0.000000
							CHANNELS 3 Zrotation Xrotation Yrotation
							JOINT LeftHand
							{
								OFFSET	 0.000000	 0.360812	 0.000000
								CHANNELS 3 Zrotation Xrotation Yrotation
								JOINT LeftHandIndex1
								{
									OFFSET	 0.000000	 0.086006	 0.000000
									CHANNELS 3 Zrotation Xrotation Yrotation
									JOINT LeftHandIndex2
									{
										OFFSET	 0.000000	 0.047237	 0.000000
										CHANNELS 3 Zrotation Xrotation Yrotation
										JOINT LeftHandIndex3
										{
											OFFSET	-0.004284	 0.038165	 0.000551
											CHANNELS 3 Zrotation Xrotation Yrotation
											End Site
											{
												OFFSET	-0.004284	 0.038165	 0.000551
											}
										}
									}
								}
							}
						}
					}
				}
				JOINT Neck
				{
					OFFSET	 0.000000	 0.176489	 0.000000
					CHANNELS 3 Zrotation Xrotation Yrotation
					JOINT Head
					{
						OFFSET	 0.000000	 0.077941	 0.001747
						CHANNELS 3 Zrotation Xrotation Yrotation
						End Site
						{
							OFFSET	 0.000000	 0.077941	 0.001747
						}
					}
				}
				JOINT RightShoulder
				{
					OFFSET	-0.080363	 0.159706	-0.000306
					CHANNELS 3 Zrotation Xrotation Yrotation
					JOINT RightArm
					{
						OFFSET	 0.000000	 0.164196	 0.000000
						CHANNELS 3 Zrotation Xrotation Yrotation
						JOINT RightForeArm
						{
							OFFSET	 0.000000	 0.365611	 0.000000
							CHANNELS 3 Zrotation Xrotation Yrotation
							JOINT RightHand
							{
								OFFSET	 0.000000	 0.360648	 0.000000
								CHANNELS 3 Zrotation Xrotation Yrotation
								JOINT RightHandIndex1
								{
									OFFSET	 0.000000	 0.069977	 0.000000
									CHANNELS 3 Zrotation Xrotation Yrotation
									JOINT RightHandIndex2
									{
										OFFSET	 0.000000	 0.052305	 0.000000
										CHANNELS 3 Zrotation Xrotation Yrotation
										JOINT RightHandIndex3
										{
											OFFSET	 0.009002	 0.042196	 0.000782
											CHANNELS 3 Zrotation Xrotation Yrotation
											End Site
											{
												OFFSET	 0.009002	 0.042196	 0.000782
											}
										}
									}
								}
							}
						}
					}
				}
			}
		}
	}
}
MOTION
Frames:    8
Frame Time: 0.03333334
-0.001291	 1.269450	-0.008681	 0.081198	 3.207493	 178.806400	 179.496500	 3.412039	-4.095865	 3.191715	-15.749440	 2.907789	-4.309949	 70.281500	 6.560752	 1.331492	 28.938720	-2.729976	-179.609700	 4.072787	 7.601572	-5.067909	-16.247590	-6.445069	 1.451387	 70.539920	-1.417933	-1.305358	 28.580640	 2.605086	-0.806227	 3.118109	-10.306230	-2.025309	 4.007275	-5.982863	-1.626847	-3.856773	 13.435140	-113.447000	 5.127292	 93.000330	 7.338669	 53.378070	 37.471720	 14.386820	-0.736620	 0.009101	-30.865230	-21.606950	-55.157150	-6.580301	 5.266122	 0.000000	 0.000000	 0.000000	 0.000000	 0.000000	 0.000000	 0.000000	 3.828836	-0.641596	-0.249786	 3.228413	 0.703442	 5.018616	 114.205900	-4.429983	-88.481340	-67.294200	-2.530468	 39.791780	-91.200750	-2.252527	-2.241771	-11.348820	-38.140170	 1.687818	-0.359781	 10.582450	 0.744568	 11.977790	 9.317317	-2.096066	-8.359142	 3.150340	 0.104224
-0.001277	 1.269867	-0.008727	 0.094527	 3.207464	 178.792600	 179.512000	 3.417949	-4.112957	 3.195423	-15.766800	 2.902848	-4.314321	 70.220090	 6.565932	 1.331492	 28.938720	-2.729976	-179.595700	 4.062868	 7.595755	-5.061581	-16.228450	-6.452972	 1.425891	 70.461040	-1.390977	-1.305362	 28.580660	 2.604066	-0.796299	 3.023948	-10.268150	-2.033391	 4.296242	-5.972512	-1.595601	-4.252151	 13.397080	-113.447100	 5.125143	 92.999860	 6.632938	 53.231810	 38.075740	 14.982270	-0.766425	 0.016956	-31.194040	-22.073100	-55.304900	-6.580301	 5.266122	 0.000000	 0.000000	 0.000000	 0.000000	 0.000000	 0.000000	 0.000000	 3.832355	-0.649670	-0.250883	 3.244265	 0.661944	 5.004284	 114.205300	-4.425684	-88.484440	-67.154190	-2.475892	 39.481380	-91.391510	-2.252372	-2.249233	-12.456240	-38.517280	 1.004605	-0.359781	 10.582430	 0.744568	 11.977790	 9.317297	-2.096062	-8.359143	 3.150329	 0.104225
-0.001254	 1.270247	-0.008780	 0.107676	 3.207379	 178.777700	 179.527900	 3.422967	-4.130981	 3.198843	-15.782750	 2.897297	-4.321974	 70.164830	 6.574022	 1.331492	 28.938720	-2.729976	-179.581400	 4.052841	 7.589272	-5.055261	-16.209300	-6.461893	 1.397929	 70.389380	-1.361325	-1.305367	 28.580680	 2.602945	-0.787861	 2.938173	-10.223100	-2.039574	 4.558287	-5.957304	-1.568031	-4.611439	 13.348390	-113.447100	 5.122756	 92.999340	 6.009556	 53.102720	 38.612630	 15.508440	-0.792649	 0.024112	-31.503310	-22.526030	-55.421000	-6.580301	 5.266122	 0.000000	 0.000000	 0.000000	 0.000000	 0.000000	 0.000000	 0.000000	 3.836224	-0.658543	-0.252087	 3.261058	 0.626108	 4.986098	 114.204600	-4.420978	-88.487850	-67.013400	-2.449267	 39.129300	-91.629270	-2.252137	-2.258559	-13.584750	-38.887860	 0.253493	-0.359780	 10.582400	 0.744568	 11.977790	 9.317273	-2.096057	-8.359142	 3.150317	 0.104226
-0.001219	 1.270631	-0.008840	 0.122044	 3.207649	 178.760300	 179.545800	 3.427805	-4.151814	 3.202497	-15.799880	 2.890575	-4.333817	 70.109630	 6.585910	 1.331492	 28.938720	-2.729976	-179.565100	 4.041330	 7.581188	-5.048299	-16.188200	-6.472582	 1.364478	 70.316760	-1.325835	-1.305372	 28.580710	 2.601623	-0.779744	 2.851119	-10.167480	-2.045552	 4.824024	-5.936379	-1.540462	-4.975656	 13.285370	-113.447200	 5.119958	 92.998700	 5.394595	 52.975700	 39.145570	 16.029400	-0.818624	 0.031421	-31.828740	-23.012990	-55.522010	-6.580301	 5.266122	 0.000000	 0.000000	 0.000000	 0.000000	 0.000000	 0.000000	 0.000000	 3.840787	-0.669015	-0.253508	 3.280370	 0.591577	 4.962595	 114.203800	-4.415421	-88.491870	-66.864590	-2.445953	 38.699840	-91.940800	-2.251774	-2.270814	-14.840310	-39.288620	-0.645436	-0.359779	 10.582370	 0.744568	 11.977790	 9.317245	-2.096052	-8.359141	 3.150302	 0.104227
-0.001171	 1.271011	-0.008912	 0.137134	 3.208010	 178.740800	 179.565300	 3.431964	-4.174939	 3.206136	-15.816960	 2.882867	-4.349508	 70.055600	 6.601278	 1.331492	 28.938720	-2.729976	-179.547300	 4.028732	 7.571964	-5.040880	-16.165710	-6.484775	 1.326705	 70.245060	-1.285859	-1.305378	 28.580750	 2.600130	-0.772484	 2.764948	-10.102800	-2.050604	 5.085243	-5.910406	-1.514138	-5.335262	 13.209400	-113.447200	 5.116791	 92.998020	 4.800623	 52.854050	 39.663510	 16.534430	-0.843699	 0.038769	-32.163910	-23.522790	-55.605900	-6.580301	 5.266122	 0.000000	 0.000000	 0.000000	 0.000000	 0.000000	 0.000000	 0.000000	 3.845938	-0.680832	-0.255110	 3.301730	 0.559181	 4.934366	 114.202900	-4.409153	-88.496410	-66.718200	-2.467467	 38.198290	-92.327900	-2.251221	-2.286089	-16.185380	-39.706680	-1.682771	-0.359778	 10.582340	 0.744568	 11.977790	 9.317214	-2.096045	-8.359141	 3.150286	 0.104229
-0.001115	 1.271356	-0.008986	 0.151671	 3.208611	 178.721000	 179.584700	 3.435273	-4.198054	 3.209481	-15.832560	 2.875008	-4.366894	 70.006600	 6.617928	 1.331492	 28.938720	-2.729976	-179.529500	 4.016154	 7.562483	-5.033646	-16.143790	-6.497283	 1.287992	 70.179760	-1.245076	-1.305384	 28.580780	 2.598613	-0.766294	 2.685899	-10.035290	-2.055916	 5.324034	-5.881962	-1.490045	-5.663125	 13.128340	-113.447300	 5.113596	 92.997330	 4.273944	 52.747270	 40.125920	 16.985700	-0.866036	 0.045520	-32.481190	-24.011130	-55.668570	-6.580301	 5.266122	 0.000000	 0.000000	 0.000000	 0.000000	 0.000000	 0.000000	 0.000000	 3.851171	-0.692842	-0.256737	 3.323107	 0.531204	 4.904369	 114.202000	-4.402769	-88.501010	-66.592490	-2.511396	 37.671880	-92.755170	-2.250430	-2.302768	-17.492420	-40.101570	-2.765775	-0.359777	 10.582310	 0.744568	 11.977790	 9.317182	-2.096039	-8.359140	 3.150269	 0.104230
-0.001047	 1.271697	-0.009069	 0.166675	 3.209187	 178.699700	 179.605300	 3.438067	-4.222911	 3.212797	-15.848140	 2.866346	-4.387501	 69.958910	 6.637401	 1.331492	 28.938720	-2.729976	-179.510500	 4.002898	 7.552037	-5.026144	-16.121010	-6.510981	 1.245708	 70.115610	-1.200700	-1.305390	 28.580820	 2.596970	-0.760806	 2.608163	-9.960994	-2.061114	 5.557302	-5.849658	-1.466801	-5.985468	 13.037220	-113.447300	 5.110102	 92.996570	 3.765904	 52.646120	 40.575210	 17.423380	-0.887666	 0.052155	-32.806170	-24.515360	-55.718670	-6.580301	 5.266122	 0.000000	 0.000000	 0.000000	 0.000000	 0.000000	 0.000000	 0.000000	 3.856839	-0.705849	-0.258498	 3.345982	 0.505005	 4.870706	 114.201000	-4.395874	-88.506000	-66.483190	-2.579205	 37.083770	-93.251130	-2.249420	-2.322279	-18.852710	-40.498940	-3.972452	-0.359776	 10.582280	 0.744568	 11.977790	 9.317148	-2.096032	-8.359139	 3.150250	 0.104232
-0.000953	 1.272084	-0.009177	 0.184452	 3.210016	 178.672900	 179.630600	 3.440722	-4.253863	 3.216616	-15.865930	 2.855599	-4.414511	 69.904940	 6.662506	 1.331492	 28.938720	-2.729976	-179.487200	 3.986450	 7.538677	-5.017044	-16.093430	-6.528113	 1.192801	 70.042760	-1.145536	-1.305398	 28.580870	 2.594923	-0.755489	 2.519395	-9.866683	-2.067620	 5.821672	-5.807409	-1.440678	-6.351678	 12.919800	-113.447400	 5.105766	 92.995620	 3.201375	 52.535930	 41.078100	 17.915270	-0.911924	 0.059881	-33.192120	-25.117000	-55.760850	-6.580301	 5.266122	 0.000000	 0.000000	 0.000000	 0.000000	 0.000000	 0.000000	 0.000000	 3.863899	-0.722053	-0.260691	 3.374172	 0.476858	 4.827518	 114.199700	-4.387251	-88.512230	-66.386050	-2.690270	 36.327270	-93.910200	-2.247812	-2.348146	-20.480420	-40.952050	-5.524929	-0.359775	 10.582230	 0.744568	 11.977790	 9.317104	-2.096024	-8.359138	 3.150228	 0.104234
